<svg xmlns="http://www.w3.org/2000/svg" viewBox="0 0 60 60"><defs><style>.cls-1{fill:#ffc247;}.cls-2{fill:#ffe45c;}.cls-3{fill:#ffda45;}.cls-4{opacity:0.54;}.cls-5{fill:#fff;}.cls-6{fill:#f2f6fc;}.cls-7{fill:#cdd2e1;}.cls-8{fill:#65b1fc;}.cls-9{fill:#e9edf5;}.cls-10{fill:#2b1505;}</style></defs><title>12-Email</title><g id="_12-Email" data-name="12-Email"><path class="cls-1" d="M57,21l.24-.24A5.944,5.944,0,0,1,59,25V53a5.944,5.944,0,0,1-1.76,4.24L57,57,36,36l-.06-.08Z"/><path class="cls-1" d="M3,57l-.24.24A5.944,5.944,0,0,1,1,53V25a5.944,5.944,0,0,1,1.76-4.24L3,21,24.06,35.92,24,36Z"/><path class="cls-2" d="M57,57l.24.24A5.944,5.944,0,0,1,53,59H7a5.944,5.944,0,0,1-4.24-1.76L3,57,24,36l.06-.08L27,38a4.38,4.38,0,0,0,3,1,4.38,4.38,0,0,0,3-1l2.94-2.08L36,36Z"/><path class="cls-2" d="M2.76,20.76A5.944,5.944,0,0,1,7,19H53a5.944,5.944,0,0,1,4.24,1.76L57,21,35.94,35.92,33,38a4.38,4.38,0,0,1-3,1,4.38,4.38,0,0,1-3-1l-2.94-2.08L3,21Z"/><path class="cls-1" d="M27,42a4.38,4.38,0,0,0,3,1,4.38,4.38,0,0,0,3-1l2.94-2.08,2.33-1.65L36,36l-.06-.08L33,38a4.38,4.38,0,0,1-3,1,4.38,4.38,0,0,1-3-1l-2.94-2.08L24,36l-2.27,2.27,2.33,1.65Z"/><path class="cls-3" d="M55,55H5L3,57l-.24.24A5.944,5.944,0,0,0,7,59H53a5.944,5.944,0,0,0,4.24-1.76L57,57Z"/><g class="cls-4"><path class="cls-5" d="M13.616,19H7a5.944,5.944,0,0,0-4.24,1.76L3,21l4.862,3.444-.1-.219C9.252,20.989,11.323,19,13.616,19Z"/></g><path class="cls-6" d="M43,1A16,16,0,1,1,30.18,26.54,20.715,20.715,0,0,0,26,31a12.222,12.222,0,0,1,2.4-7.48A15.979,15.979,0,0,1,43,1Z"/><path class="cls-7" d="M59,17A15.984,15.984,0,0,0,36.463,2.4,15.991,15.991,0,0,1,46.537,32.6,15.992,15.992,0,0,0,59,17Z"/><path class="cls-8" d="M53,17a9.988,9.988,0,0,1-4.82,8.55L48,25V24a5,5,0,0,0-5-5,4,4,0,1,0-4-4,4,4,0,0,0,4,4,5,5,0,0,0-5,5v1l-.98.01A10,10,0,1,1,53,17Z"/><circle class="cls-9" cx="43" cy="15" r="4"/><path class="cls-9" d="M48,25l.18.55a9.979,9.979,0,0,1-11.16-.54L38,25V24a5,5,0,0,1,10,0Z"/><path class="cls-10" d="M60,17a17,17,0,0,0-34,0c0,.335.029.667.048,1H7a7.008,7.008,0,0,0-7,7V53a7.008,7.008,0,0,0,7,7H53a7.008,7.008,0,0,0,7-7V25a7,7,0,0,0-.731-3.083A16.96,16.96,0,0,0,60,17ZM43,2a15,15,0,0,1,0,30,14.864,14.864,0,0,1-12.019-6.057.994.994,0,0,0-.657-.392.873.873,0,0,0-.144-.011,1,1,0,0,0-.6.2,17.415,17.415,0,0,0-2.132,1.91A10.757,10.757,0,0,1,29.2,24.12a1,1,0,0,0,.112-1.009A14.855,14.855,0,0,1,28,17,15.017,15.017,0,0,1,43,2ZM26.279,20a16.914,16.914,0,0,0,.981,3.4A13.222,13.222,0,0,0,25,31a1,1,0,0,0,1.832.555,20.81,20.81,0,0,1,3.189-3.6A16.83,16.83,0,0,0,38,33.236l-5.574,3.948a1.1,1.1,0,0,0-.117.1A3.469,3.469,0,0,1,30,38a3.478,3.478,0,0,1-2.293-.707,1.033,1.033,0,0,0-.129-.109L4.387,20.757A4.955,4.955,0,0,1,7,20ZM2,25a4.959,4.959,0,0,1,.9-2.846l19.629,13.9L2.833,55.753A4.969,4.969,0,0,1,2,53ZM7,58a4.969,4.969,0,0,1-2.753-.833L24.184,37.23l2.184,1.548A5.441,5.441,0,0,0,30,40a5.441,5.441,0,0,0,3.632-1.222l2.184-1.548L55.753,57.167A4.969,4.969,0,0,1,53,58ZM58,25V53a4.969,4.969,0,0,1-.833,2.753L37.472,36.058l3.162-2.24A16.813,16.813,0,0,0,58,24.985Z"/><path class="cls-10" d="M43,28A11,11,0,1,0,32,17,11.013,11.013,0,0,0,43,28Zm-4.009-2.954c0-.016.009-.03.009-.046V24a4,4,0,0,1,8,0v1c0,.016.008.03.009.046a8.9,8.9,0,0,1-8.018,0ZM40,15a3,3,0,1,1,3,3A3,3,0,0,1,40,15Zm3-7a8.987,8.987,0,0,1,5.985,15.7,5.994,5.994,0,0,0-2.872-4.822,5,5,0,1,0-6.226,0A5.994,5.994,0,0,0,37.015,23.7,8.987,8.987,0,0,1,43,8Z"/></g></svg>