<?xml version="1.0" encoding="iso-8859-1"?>
<!-- Generator: Adobe Illustrator 19.0.0, SVG Export Plug-In . SVG Version: 6.00 Build 0)  -->
<svg version="1.1" id="Layer_1" xmlns="http://www.w3.org/2000/svg" xmlns:xlink="http://www.w3.org/1999/xlink" x="0px" y="0px"
	 viewBox="0 0 511.999 511.999" style="enable-background:new 0 0 511.999 511.999;" xml:space="preserve">
<path style="fill:#D49000;" d="M477.317,160.58H204.443c-2.297-12.248-13.09-21.598-25.978-21.598H117.85
	c-12.89,0-23.681,9.35-25.98,21.598H71.129c-14.546,0-26.448,11.902-26.448,26.448v238.723c0,14.546,11.902,26.448,26.448,26.448
	h406.187c14.546,0,26.448-11.902,26.448-26.448V187.028C503.765,172.482,491.863,160.58,477.317,160.58z"/>
<path style="opacity:0.3;fill:#76531C;enable-background:new    ;" d="M44.681,203.297V425.75c0,14.546,11.902,26.448,26.448,26.448
	h406.187c14.546,0,26.448-11.902,26.448-26.448V203.297H44.681z"/>
<rect x="141.329" y="59.805" style="fill:#E0E0D3;" width="282.659" height="302.576"/>
<g>
	<path style="fill:#5C6670;" d="M381.667,133.648H183.64c-4.549,0-8.235-3.687-8.235-8.235c0-4.548,3.686-8.235,8.235-8.235h198.027
		c4.549,0,8.235,3.687,8.235,8.235C389.902,129.961,386.216,133.648,381.667,133.648z"/>
	<path style="fill:#5C6670;" d="M381.667,180.179h-60.894c-4.549,0-8.235-3.687-8.235-8.235c0-4.548,3.686-8.235,8.235-8.235h60.894
		c4.549,0,8.235,3.687,8.235,8.235C389.902,176.492,386.216,180.179,381.667,180.179z"/>
	<path style="fill:#5C6670;" d="M291.13,180.179H183.641c-4.549,0-8.235-3.687-8.235-8.235c0-4.548,3.686-8.235,8.235-8.235H291.13
		c4.549,0,8.235,3.687,8.235,8.235C299.364,176.492,295.677,180.179,291.13,180.179z"/>
</g>
<path style="fill:#FFC843;" d="M467.704,247.99c-2.529-14.325-16.501-26.045-31.047-26.045H30.468
	c-14.546,0-24.376,11.72-21.847,26.045l31.461,178.164c2.531,14.324,16.501,26.045,31.047,26.045h406.187
	c14.546,0,24.376-11.721,21.847-26.045L467.704,247.99z"/>
<path style="fill:#1E252B;" d="M477.317,152.346h-45.1V59.8c0-4.548-3.686-8.235-8.235-8.235H141.324
	c-4.548,0-8.235,3.687-8.235,8.235v70.948H117.85c-14.291,0-26.864,8.757-32.098,21.598H71.129
	c-19.124,0-34.682,15.558-34.682,34.682v26.683h-5.978c-9.372,0-17.987,3.86-23.634,10.591c-5.647,6.732-7.953,15.887-6.323,25.12
	l31.461,178.165c3.199,18.112,20.765,32.847,39.157,32.847h406.187c19.124,0,34.682-15.558,34.682-34.682V187.028
	C512,167.904,496.442,152.346,477.317,152.346z M149.558,68.034h266.19v145.676h-266.19V68.034z M52.916,187.028
	c0-10.042,8.17-18.213,18.213-18.213h20.742c3.961,0,7.363-2.822,8.093-6.715c1.619-8.623,9.141-14.883,17.887-14.883h15.239v66.494
	H52.916V187.028z M488.334,439.256c-1.902,2.266-4.564,3.771-7.689,4.389c-0.152,0.029-0.305,0.046-0.458,0.07
	c-0.368,0.061-0.736,0.122-1.114,0.16c-0.579,0.056-1.164,0.089-1.757,0.089H71.129c-10.591,0-21.096-8.812-22.939-19.242
	L16.73,246.56c-0.793-4.49,0.173-8.635,2.722-11.671c2.546-3.036,6.459-4.707,11.017-4.707h406.187
	c10.592,0,21.097,8.811,22.939,19.242l31.461,178.163C491.848,432.075,490.882,436.22,488.334,439.256z M495.53,358.217
	L475.813,246.56c-3.196-18.113-20.762-32.848-39.157-32.848h-4.439v-44.896h45.1c10.042,0,18.213,8.17,18.213,18.213V358.217z"/>
<g>
</g>
<g>
</g>
<g>
</g>
<g>
</g>
<g>
</g>
<g>
</g>
<g>
</g>
<g>
</g>
<g>
</g>
<g>
</g>
<g>
</g>
<g>
</g>
<g>
</g>
<g>
</g>
<g>
</g>
</svg>
